<svg width="26" height="17" viewBox="0 0 26 17" fill="none" xmlns="http://www.w3.org/2000/svg">
<path fill-rule="evenodd" clip-rule="evenodd" d="M5.24273 12.9697C4.95797 12.9271 4.65525 12.9033 4.33335 12.9033C1.96239 12.9033 0.63824 14.2071 0.130619 14.8568C0.048285 14.9684 0.00433569 15.1052 0.00433569 15.2465C0.00433569 15.2504 0.00433131 15.2543 0.00371226 15.2575C-2.04057e-06 15.4962 0 15.8123 0 16.1291C0 16.4852 0.277334 16.7743 0.61905 16.7743H5.05887C4.98892 16.5691 4.9524 16.351 4.9524 16.1291C4.9524 15.3949 4.9524 14.5201 4.95487 14.0033C4.95487 13.6355 5.05578 13.2775 5.24273 12.9697ZM19.1905 16.7743H6.80955C6.6455 16.7743 6.48764 16.7065 6.37188 16.5852C6.2555 16.4646 6.1905 16.3001 6.1905 16.1291C6.1905 15.3968 6.1905 14.5259 6.19297 14.0071V14.0033C6.19297 13.8549 6.2425 13.7117 6.33226 13.5968C7.1005 12.6826 9.42194 10.3226 13 10.3226C17.0499 10.3226 19.0835 12.6781 19.7056 13.5665C19.7743 13.6755 19.8096 13.7988 19.8096 13.9246V16.1291C19.8096 16.3001 19.7446 16.4646 19.6282 16.5852C19.5125 16.7065 19.3546 16.7743 19.1905 16.7743ZM20.9412 16.7743H25.381C25.7228 16.7743 26.0001 16.4852 26.0001 16.1291V15.2459C26.0001 15.1033 25.9549 14.9652 25.872 14.8523C25.3619 14.2072 24.0371 12.9033 21.6667 12.9033C21.3616 12.9033 21.0737 12.9246 20.8026 12.9633C20.9629 13.2555 21.0477 13.5871 21.0477 13.9259V16.1291C21.0477 16.351 21.0112 16.5691 20.9412 16.7743ZM4.33335 5.16131C2.62477 5.16131 1.2381 6.60648 1.2381 8.38713C1.2381 10.1678 2.62477 11.6129 4.33335 11.6129C6.04193 11.6129 7.4286 10.1678 7.4286 8.38713C7.4286 6.60648 6.04193 5.16131 4.33335 5.16131ZM21.6667 5.16131C19.9582 5.16131 18.5715 6.60648 18.5715 8.38713C18.5715 10.1678 19.9582 11.6129 21.6667 11.6129C23.3753 11.6129 24.762 10.1678 24.762 8.38713C24.762 6.60648 23.3753 5.16131 21.6667 5.16131ZM13 0C10.6087 0 8.6667 2.02388 8.6667 4.51615C8.6667 7.00841 10.6087 9.03229 13 9.03229C15.3914 9.03229 17.3334 7.00841 17.3334 4.51615C17.3334 2.02388 15.3914 0 13 0Z" fill="#FEFFFF"/>
</svg>
