<svg width="18" height="25" viewBox="0 0 18 25" fill="none" xmlns="http://www.w3.org/2000/svg">
<path d="M15.3 0H2.7C1.215 0 0 1.20536 0 2.67857V22.3214C0 23.7946 1.215 25 2.7 25H15.3C16.785 25 18 23.7946 18 22.3214V2.67857C18 1.20536 16.785 0 15.3 0ZM6.3 5.35714C6.795 5.35714 7.2 5.75893 7.2 6.25C7.2 6.74107 6.795 7.14286 6.3 7.14286C5.805 7.14286 5.4 6.74107 5.4 6.25C5.4 5.75893 5.805 5.35714 6.3 5.35714ZM5.661 10.9732L11.061 5.61607C11.412 5.26786 11.988 5.26786 12.339 5.61607C12.69 5.96429 12.69 6.53571 12.339 6.88393L6.939 12.2411C6.759 12.4107 6.534 12.5 6.3 12.5C6.066 12.5 5.841 12.4107 5.661 12.2411C5.31 11.8929 5.31 11.3214 5.661 10.9732ZM12.6 11.6071C12.6 12.0982 12.195 12.5 11.7 12.5C11.205 12.5 10.8 12.0982 10.8 11.6071C10.8 11.1161 11.205 10.7143 11.7 10.7143C12.195 10.7143 12.6 11.1161 12.6 11.6071ZM10.8 21.4286H4.5C4.005 21.4286 3.6 21.0268 3.6 20.5357C3.6 20.0446 4.005 19.6429 4.5 19.6429H10.8C11.295 19.6429 11.7 20.0446 11.7 20.5357C11.7 21.0268 11.295 21.4286 10.8 21.4286ZM13.5 17.8571H4.5C4.005 17.8571 3.6 17.4554 3.6 16.9643C3.6 16.4732 4.005 16.0714 4.5 16.0714H13.5C13.995 16.0714 14.4 16.4732 14.4 16.9643C14.4 17.4554 13.995 17.8571 13.5 17.8571Z" fill="#FEFEFE"/>
</svg>
