<svg width="76" height="75" viewBox="0 0 76 75" fill="none" xmlns="http://www.w3.org/2000/svg">
<path d="M51.5623 14.0625C51.5623 6.29588 45.2665 0 37.4999 0C29.7333 0 23.4374 6.29588 23.4374 14.0625C23.4374 21.829 29.7333 28.1249 37.4999 28.1249C45.2665 28.1249 51.5623 21.829 51.5623 14.0625ZM34.2172 35.3173C25.5263 29.997 11.4492 28.5351 4.36522 28.1322C1.98486 27.9975 0 29.8109 0 32.1005V64.7371C0 66.8362 1.69775 68.5867 3.88036 68.6995C10.2758 69.0349 23.2148 70.2639 32.1576 74.7683C33.5302 75.4597 35.1576 74.5178 35.1576 73.0295V36.996C35.1561 36.3119 34.8178 35.6849 34.2172 35.3173ZM70.6345 28.1322C63.552 28.5336 49.4735 29.997 40.7841 35.3173C40.1835 35.6849 39.8451 36.3368 39.8451 37.0209V73.0251C39.8451 74.5178 41.4769 75.4612 42.8539 74.7683C51.7952 70.2683 64.7268 69.0393 71.1209 68.7039C73.3035 68.5896 75.0012 66.8391 75.0012 64.74V32.1005C74.9998 29.8109 73.0149 27.9975 70.6345 28.1322Z" fill="#B2477A"/>
</svg>
