<svg width="26" height="16" viewBox="0 0 26 16" fill="none" xmlns="http://www.w3.org/2000/svg">
<path d="M24.742 0H1.25807C0.561938 0 0 0.561938 0 1.25807V4.42002C0 5.11615 0.561938 5.67809 1.25807 5.67809C2.46582 5.67809 3.44711 6.65938 3.44711 7.86713C3.44711 9.07487 2.46582 10.0562 1.25807 10.0562C0.561938 10.0562 0 10.6181 0 11.3142V14.4762C0 15.1723 0.561938 15.7343 1.25807 15.7343H24.742C25.4382 15.7343 26.0001 15.1723 26.0001 14.4762V11.3142C26.0001 10.6181 25.4382 10.0562 24.742 10.0562C23.5343 10.0562 22.553 9.07487 22.553 7.86713C22.553 6.65938 23.5343 5.67809 24.742 5.67809C25.4382 5.67809 26.0001 5.11615 26.0001 4.42002V1.25807C26.0001 0.561938 25.4382 0 24.742 0ZM18.4517 10.8026C18.4517 11.4904 17.8897 12.0607 17.1936 12.0607C16.4975 12.0607 15.9355 11.4904 15.9355 10.8026V4.93163C15.9355 4.24389 16.4975 3.67356 17.1936 3.67356C17.8897 3.67356 18.4517 4.24389 18.4517 4.93163V10.8026Z" fill="white" fill-opacity="0.95"/>
</svg>
