<svg width="860" height="849" viewBox="0 0 860 849" fill="none" xmlns="http://www.w3.org/2000/svg">
<g opacity="0.1" filter="url(#filter0_d_2013_169)">
<path d="M740.457 450.09C741.026 462.377 740.263 474.607 738.184 486.511C737.484 490.517 736.639 494.443 735.647 498.289C734.433 503.029 732.99 507.678 731.325 512.215C730.485 514.506 729.589 516.755 728.637 518.961C729.226 531.561 727.49 544.007 723.538 555.513C716.382 576.153 702.711 592.772 685.015 602.343C673.936 608.342 661.671 611.436 649.093 611.404L217.552 607.508C198.353 607.383 179.225 601.532 162.112 590.551C159.583 588.926 157.112 587.198 154.699 585.366C149.461 581.383 144.507 576.925 139.891 572.042C133.641 565.431 128.065 558.057 123.278 550.074C112.035 531.381 105.548 509.795 104.569 487.816C93.0926 466.907 85.8195 441.92 84.6024 415.128C83.0669 381.326 91.4244 350.579 106.396 327.382C109.517 322.535 112.97 317.98 116.726 313.753C120.431 309.571 124.444 305.747 128.727 302.318C132.152 299.569 135.751 297.093 139.499 294.906C141.063 293.994 142.636 293.145 144.238 292.352C145.645 291.646 147.07 290.989 148.514 290.37C150.247 289.627 152.005 288.948 153.788 288.334C155.571 287.72 157.333 287.181 159.075 286.717C161.636 286.027 164.247 285.471 166.909 285.049C169.115 284.699 171.326 284.463 173.54 284.283C175.301 284.157 177.079 284.089 178.874 284.081L179.847 284.089C181.825 284.107 183.796 284.213 185.754 284.38C185.938 283.919 186.139 283.452 186.324 282.99C187.026 281.332 187.756 279.674 188.494 278.048L188.492 278.004C188.618 277.724 188.744 277.443 188.876 277.169C189.471 275.842 190.094 274.527 190.735 273.225C191.029 272.602 191.319 272.017 191.62 271.425C191.686 271.282 191.752 271.145 191.828 271.001C192.133 270.378 192.444 269.756 192.76 269.133C194.335 266.064 195.981 263.044 197.698 260.073C197.847 259.818 197.986 259.569 198.136 259.32C198.404 258.859 198.65 258.405 198.951 257.951C199.663 256.75 200.397 255.542 201.137 254.354C201.655 253.514 202.172 252.674 202.735 251.866C204.085 249.775 205.473 247.698 206.897 245.646C208.32 243.594 209.826 241.53 211.351 239.511C211.56 239.231 211.77 238.957 211.99 238.678L214.231 235.789C214.342 235.652 214.436 235.528 214.541 235.403C214.809 235.062 215.066 234.72 215.356 234.385C216.56 232.881 217.798 231.397 219.042 229.932C225.4 222.494 232.219 215.574 239.454 209.217C239.736 208.957 240.025 208.709 240.308 208.462C241.665 207.273 243.045 206.102 244.426 204.951C252.024 198.652 260.004 192.935 268.317 187.835C268.889 187.464 269.473 187.113 270.063 186.762C277.521 182.266 285.218 178.25 293.118 174.731C297.423 172.814 301.812 171.026 306.284 169.369C309.246 168.288 312.221 167.257 315.239 166.321C319.904 164.832 324.635 163.494 329.432 162.307C343.566 158.822 358.01 156.721 372.608 156.027C377.042 155.804 381.531 155.713 386.077 155.754C408.009 155.92 429.999 159.23 451.516 165.606C451.752 165.982 452.066 166.289 452.429 166.499C452.791 166.709 453.189 166.815 453.587 166.807L455.454 166.824C456.276 167.075 457.094 167.339 457.917 167.61C462.515 169.124 467.054 170.768 471.534 172.544L472.665 173.005C483.726 177.454 494.533 182.779 505.002 188.94C514.437 194.482 523.564 200.719 532.318 207.607C533.666 208.67 534.997 209.744 536.309 210.828C537.792 209.728 539.303 208.68 540.843 207.684C546.788 203.813 553.15 200.751 559.803 198.557C573.714 193.976 588.63 193.453 603.195 197.034C621.873 201.614 639.097 212.72 653.314 228.422C659.106 234.826 664.325 241.852 668.887 249.386C669.217 249.927 669.547 250.475 669.867 251.028C673.79 257.718 677.22 264.738 680.119 272.013C680.225 272.277 680.331 272.534 680.427 272.798C683.107 279.606 685.338 286.601 687.099 293.726C687.182 294.083 687.276 294.447 687.359 294.81C689.017 301.705 690.247 308.693 691.042 315.724C691.053 315.974 691.065 316.231 691.121 316.488C691.52 320.125 691.805 323.8 691.978 327.514C692.128 330.832 692.178 334.123 692.143 337.383C692.159 337.74 692.131 338.115 692.12 338.478C692.113 339.429 692.083 340.355 692.054 341.312C696.474 345.204 700.638 349.459 704.509 354.038C706.218 356.044 707.879 358.125 709.492 360.284C714.404 366.841 718.778 373.871 722.555 381.282C732.845 401.385 739.314 424.932 740.457 450.09Z" fill="#4804B6" fill-opacity="0.77" shape-rendering="crispEdges"/>
</g>
<defs>
<filter id="filter0_d_2013_169" x="84.4221" y="155.745" width="656.217" height="456.66" filterUnits="userSpaceOnUse" color-interpolation-filters="sRGB">
<feFlood flood-opacity="0" result="BackgroundImageFix"/>
<feColorMatrix in="SourceAlpha" type="matrix" values="0 0 0 0 0 0 0 0 0 0 0 0 0 0 0 0 0 0 127 0" result="hardAlpha"/>
<feOffset dy="1"/>
<feComposite in2="hardAlpha" operator="out"/>
<feColorMatrix type="matrix" values="0 0 0 0 0 0 0 0 0 0 0 0 0 0 0 0 0 0 1 0"/>
<feBlend mode="normal" in2="BackgroundImageFix" result="effect1_dropShadow_2013_169"/>
<feBlend mode="normal" in="SourceGraphic" in2="effect1_dropShadow_2013_169" result="shape"/>
</filter>
</defs>
</svg>
