<svg width="21" height="21" viewBox="0 0 21 21" fill="none" xmlns="http://www.w3.org/2000/svg">
<path d="M18.9 0H2.1C0.939749 0 0 0.939749 0 2.1V18.9C0 20.0602 0.939749 21 2.1 21H18.9C20.0602 21 21 20.0602 21 18.9V2.1C21 0.939749 20.0602 0 18.9 0ZM12.2913 14.3934L10.1913 16.4934C9.98654 16.6981 9.71774 16.801 9.44894 16.801C9.18014 16.801 8.91134 16.6981 8.70659 16.4934C8.29604 16.0828 8.29604 15.4192 8.70659 15.0087L9.01529 14.7H5.25C4.6704 14.7 4.2 14.2306 4.2 13.65C4.2 13.0693 4.6704 12.6 5.25 12.6H9.01529L8.70869 12.2934C8.29814 11.8828 8.29814 11.2192 8.70869 10.8087C9.11924 10.3981 9.78284 10.3981 10.1934 10.8087L12.2923 12.9066C12.3889 13.0032 12.4656 13.1176 12.5191 13.2457C12.5716 13.3728 12.6 13.5093 12.6 13.65C12.6 13.7896 12.5716 13.9272 12.5181 14.0542C12.4656 14.1813 12.3879 14.2968 12.2913 14.3934ZM15.75 8.39999H11.9847L12.2913 8.70659C12.7018 9.11714 12.7018 9.78074 12.2913 10.1913C12.0865 10.3971 11.8177 10.5 11.55 10.5C11.2822 10.5 11.0124 10.3971 10.8076 10.1923L8.70869 8.09339C8.61209 7.99679 8.53544 7.88024 8.48189 7.75214C8.37584 7.49489 8.37584 7.20614 8.48189 6.94994C8.53544 6.82184 8.61209 6.70529 8.70869 6.60869L10.8087 4.5087C11.2192 4.09815 11.8828 4.09815 12.2934 4.5087C12.7039 4.91925 12.7039 5.58285 12.2934 5.99339L11.9847 6.29999H15.75C16.3296 6.29999 16.8 6.77039 16.8 7.34999C16.8 7.92959 16.3296 8.39999 15.75 8.39999Z" fill="#FEFFFF"/>
</svg>
